<?xml version="1.0" encoding="iso-8859-1"?>
<!-- Generator: Adobe Illustrator 19.0.0, SVG Export Plug-In . SVG Version: 6.00 Build 0)  -->
<svg version="1.1" id="Capa_1" xmlns="http://www.w3.org/2000/svg" xmlns:xlink="http://www.w3.org/1999/xlink" x="0px"
  y="0px" viewBox="0 0 480 480" style="enable-background:new 0 0 480 480;" xml:space="preserve">
  <g>
    <g>
      <path d="M472,432h-38.608c12.435,0.054,22.83-9.443,23.896-21.832L472,248.72c0.398-4.4-2.847-8.29-7.247-8.688
			c-0.25-0.023-0.501-0.033-0.753-0.032H352c-4.418-0.018-8.014,3.549-8.032,7.967c-0.001,0.251,0.01,0.502,0.032,0.753
			l14.68,161.456c1.071,12.398,11.484,21.895,23.928,21.824h-85.216c12.435,0.054,22.83-9.443,23.896-21.832L336,248.72
			c0.398-4.4-2.847-8.29-7.247-8.688c-0.25-0.023-0.501-0.033-0.753-0.032H216c-4.418-0.018-8.014,3.549-8.032,7.967
			c-0.001,0.251,0.01,0.502,0.032,0.753l14.68,161.456c1.071,12.398,11.484,21.895,23.928,21.824H168c13.255,0,24-10.745,24-24V216
			c0.045-24.766-16.246-46.595-40-53.6V48h8c4.418,0,8-3.582,8-8V24c0-13.255-10.745-24-24-24H64C50.745,0,40,10.745,40,24v16
			c0,4.418,3.582,8,8,8h8v114.4c-23.754,7.005-40.045,28.834-40,53.6v192c0,13.255,10.745,24,24,24H8c-4.418,0-8,3.582-8,8
			c0.026,22.08,17.92,39.974,40,40h400c22.08-0.026,39.974-17.92,40-40C480,435.582,476.418,432,472,432z M374.648,408.728
			L360.8,256h94.48l-13.928,152.72c-0.372,4.12-3.824,7.276-7.96,7.28h-50.784C378.474,415.996,375.024,412.844,374.648,408.728z
			 M238.648,408.728L224.8,256h94.48l-13.928,152.72c-0.372,4.12-3.824,7.276-7.96,7.28h-50.784
			C242.474,415.996,239.024,412.844,238.648,408.728z M56,24c0-4.418,3.582-8,8-8h80c4.418,0,8,3.582,8,8v8H56V24z M32,408V216
			c-0.046-19.524,14.066-36.204,33.328-39.392C69.179,175.96,72,172.625,72,168.72V48h64v120.72c0,3.905,2.821,7.24,6.672,7.888
			C161.934,179.796,176.046,196.476,176,216v192c0,4.418-3.582,8-8,8H40C35.582,416,32,412.418,32,408z M440,464H40
			c-10.168-0.012-19.229-6.418-22.632-16h445.264C459.229,457.582,450.168,463.988,440,464z" />
    </g>
  </g>
  <g>
    <g>
      <path
        d="M66.648,184.496C51.245,187.048,39.962,200.387,40,216h16c-0.021-7.794,5.614-14.452,13.304-15.72L66.648,184.496z" />
    </g>
  </g>
</svg>