<svg xmlns="http://www.w3.org/2000/svg" width="186.159" height="122.943" viewBox="0 0 186.159 122.943"><g transform="translate(-54 -80.517)"><path d="M76.957,203.46l50.582-39.1-53.63-63.14Z" fill="#ffde00"/><path d="M147.529,152.507l-31.891-11.5,21.647-9.791Z" fill="#ffde00"/><path d="M193.75,108.722l-16.2-.242,5.995,7.6Z" fill="#ffde00"/><path d="M167.459,128.984l6.182-.268-5.789,2.375Z" fill="#ffde00"/><path d="M155.951,129.232l-7.33-10.077,9.7,2.527Z" fill="#ffde00"/><path d="M231.272,126.531l8.23.307.657-9.6Z" fill="#ffde00"/><path d="M54,153.652l52.1,1.941L56.289,120.166Z" fill="#5dbeba"/><path d="M141.967,107.579,127.4,128.638l-6.087-33.629Z" fill="#5dbeba"/><path d="M167.136,104.195l5.27,6.681-11.918-1.89Z" fill="#5dbeba"/><path d="M203.442,128.258l-4.8-6.2,8.485,3.624Z" fill="#5dbeba"/><path d="M222.143,80.517l-3.677,2.649,5.515-.318Z" fill="#5dbeba"/><path d="M115.643,124l-5.448,6.815,17.058,1.419Z" fill="#5dbeba"/></g></svg>