<?xml version="1.0" encoding="utf-8"?>
<!-- Generator: Adobe Illustrator 17.0.0, SVG Export Plug-In . SVG Version: 6.00 Build 0)  -->
<!DOCTYPE svg PUBLIC "-//W3C//DTD SVG 1.1//EN" "http://www.w3.org/Graphics/SVG/1.1/DTD/svg11.dtd">
<svg version="1.1" id="Calque_1" xmlns="http://www.w3.org/2000/svg" xmlns:xlink="http://www.w3.org/1999/xlink" x="0px" y="0px"
	 width="283.46px" height="283.46px" viewBox="0 0 283.46 283.46" enable-background="new 0 0 283.46 283.46" xml:space="preserve">
<polygon fill="#FAEB1A" points="76.957,203.46 127.539,164.36 73.909,101.22 "/>
<polygon fill="#FAEB1A" points="147.529,152.507 115.638,141.012 137.285,131.221 "/>
<polygon fill="#FAEB1A" points="193.75,108.722 177.546,108.48 183.541,116.079 "/>
<polygon fill="#FAEB1A" points="167.459,128.984 173.641,128.716 167.852,131.091 "/>
<polygon fill="#FAEB1A" points="155.951,129.232 148.621,119.155 158.323,121.682 "/>
<polygon fill="#FAEB1A" points="231.272,126.531 239.502,126.838 240.159,117.234 "/>
<polygon fill="#76B7A0" points="54,153.652 106.104,155.593 56.289,120.166 "/>
<polygon fill="#76B7A0" points="141.967,107.579 127.4,128.638 121.313,95.009 "/>
<polygon fill="#76B7A0" points="167.136,104.195 172.406,110.876 160.488,108.986 "/>
<polygon fill="#76B7A0" points="203.442,128.258 198.641,122.059 207.126,125.683 "/>
<polygon fill="#76B7A0" points="222.143,80.517 218.466,83.166 223.981,82.848 "/>
<polygon fill="#76B7A0" points="115.643,124.001 110.195,130.816 127.253,132.235 "/>
</svg>
