<svg id="Pop_Art" data-name="Pop Art" xmlns="http://www.w3.org/2000/svg" viewBox="0 0 25.08 53.18"><defs><style>.cls-1{fill:#1d1d1b;}.cls-2{fill:#5dbeba;}.cls-3{fill:#ffde00;}</style></defs><title>logo CDQ</title><path class="cls-1" d="M20.13,26.91c0,1.54,0,3.08,0,4.61a1.58,1.58,0,0,1-1.3,1.63,15.46,15.46,0,0,1-9.72,0c-4.4-1.64-6.8-5-7.69-9.49a12.23,12.23,0,0,1-.18-2.26,11.8,11.8,0,0,0-.63-3.81A9.25,9.25,0,0,1,1,11.83,14,14,0,0,1,8.73,3.28,22.82,22.82,0,0,1,21.11,1,7.41,7.41,0,0,1,24.4,2a1.11,1.11,0,0,1,.66,1.23c-.2.93-.42,1.86-.68,2.77-.05.17-.41.22-.6.36C21.69,8,16.9,7.89,15.15,6a.62.62,0,0,0-.47-.09A20,20,0,0,0,3.78,12a8.18,8.18,0,0,0-2.1,5.59,7.48,7.48,0,0,0,.83,3.55,20,20,0,0,0,3.23,4.66A9.83,9.83,0,0,0,13.28,29a25.87,25.87,0,0,0,3-.18A5,5,0,0,0,20.13,26.91ZM16.37,5.58c1.33,1.26,5.46,1.21,6.66,0A19.44,19.44,0,0,0,16.37,5.58Z"/><path class="cls-1" d="M21.65,53.18,20.71,53c.15-1.34.3-2.64.43-3.95.51-4.84,1.24-9.68,1-14.57-.12-2.37-.26-4.75-.57-7.1a8.78,8.78,0,0,0-5-6.86,27,27,0,0,0-3.86-1.42.69.69,0,0,0-.54.18A17,17,0,0,1,10.28,21a10.11,10.11,0,0,1-4.71,1.6c-1.41.11-2-.41-2.34-1.84A4.73,4.73,0,0,1,6.64,15,15.43,15.43,0,0,1,19,16.7c3.15,2,4.56,5,4.87,8.57a72.23,72.23,0,0,1-.23,14.18c-.49,4.43-1.22,8.82-1.85,13.23A5,5,0,0,1,21.65,53.18ZM11.16,18.89a6.52,6.52,0,0,0-6.41,2.59C6.22,22,10.14,20.42,11.16,18.89Z"/><path class="cls-2" d="M19.84,26c0,1.54,0,3.08,0,4.61a1.56,1.56,0,0,1-1.29,1.63,15.46,15.46,0,0,1-9.72,0c-4.4-1.64-6.8-5-7.69-9.49a11.44,11.44,0,0,1-.19-2.26,11.8,11.8,0,0,0-.63-3.81A9.25,9.25,0,0,1,.71,11,14,14,0,0,1,8.44,2.41,22.81,22.81,0,0,1,20.82.11a7.41,7.41,0,0,1,3.29,1,1.12,1.12,0,0,1,.65,1.23c-.19.93-.41,1.86-.68,2.77,0,.17-.41.22-.59.36-2.1,1.64-6.88,1.53-8.63-.37A.64.64,0,0,0,14.38,5,20,20,0,0,0,3.49,11.12a8.13,8.13,0,0,0-2.1,5.59,7.37,7.37,0,0,0,.83,3.55,20,20,0,0,0,3.23,4.66A9.82,9.82,0,0,0,13,28.13,25.7,25.7,0,0,0,16,28C17.48,27.73,18.91,27.4,19.84,26ZM16.08,4.71c1.33,1.26,5.46,1.21,6.66,0A19.45,19.45,0,0,0,16.08,4.71Z"/><path class="cls-3" d="M21.36,52.31l-.94-.14c.14-1.34.29-2.64.43-4,.5-4.84,1.24-9.68,1-14.57-.12-2.37-.26-4.75-.56-7.1a8.78,8.78,0,0,0-5-6.86,27.09,27.09,0,0,0-3.87-1.42.66.66,0,0,0-.53.18A19.12,19.12,0,0,1,10,20.11a10.15,10.15,0,0,1-4.72,1.6c-1.41.11-2-.41-2.34-1.84a4.73,4.73,0,0,1,3.42-5.78,15.44,15.44,0,0,1,12.34,1.74c3.14,2,4.56,5,4.87,8.57a71.47,71.47,0,0,1-.24,14.18C22.83,43,22.1,47.4,21.48,51.81A5,5,0,0,1,21.36,52.31ZM10.87,18a6.54,6.54,0,0,0-6.42,2.59C5.93,21.11,9.84,19.55,10.87,18Z"/></svg>